HIERARCHY
ROOT Hips
{
	OFFSET -14.64140 90.27770 -84.91600
	CHANNELS 6 Xposition Yposition Zposition Zrotation Xrotation Yrotation
	JOINT Spine
	{
		OFFSET 0.00000 13.20850 -1.60436
		CHANNELS 3 Zrotation Xrotation Yrotation
		JOINT Spine1
		{
			OFFSET 0.00000 8.61716 0.00000
			CHANNELS 3 Zrotation Xrotation Yrotation
			JOINT Spine2
			{
				OFFSET 0.00000 8.61717 0.00000
				CHANNELS 3 Zrotation Xrotation Yrotation
				JOINT Spine3
				{
					OFFSET 0.00000 8.61717 0.00000
					CHANNELS 3 Zrotation Xrotation Yrotation
					JOINT Neck
					{
						OFFSET 0.00000 11.07920 1.10792
						CHANNELS 3 Zrotation Xrotation Yrotation
						JOINT Neck1
						{
							OFFSET 0.00000 7.08032 0.00000
							CHANNELS 3 Zrotation Xrotation Yrotation
							JOINT Head
							{
								OFFSET 0.00000 7.08031 0.00000
								CHANNELS 3 Zrotation Xrotation Yrotation
								End site
								{
									OFFSET 0.00000 0.00000 0.00000
								}
							}
						}
					}
					JOINT RightShoulder
					{
						OFFSET -0.01000 7.91373 5.19711
						CHANNELS 3 Zrotation Xrotation Yrotation
						JOINT RightArm
						{
							OFFSET -18.41580 0.00000 0.00000
							CHANNELS 3 Zrotation Xrotation Yrotation
							JOINT RightForeArm
							{
								OFFSET -29.11090 0.00000 0.00000
								CHANNELS 3 Zrotation Xrotation Yrotation
								JOINT RightHand
								{
									OFFSET -24.65040 0.00000 0.00000
									CHANNELS 3 Zrotation Xrotation Yrotation
									JOINT RightHandThumb1
									{
										OFFSET -5.35114 -0.85590 3.97906
										CHANNELS 3 Zrotation Xrotation Yrotation
										JOINT RightHandThumb2
										{
											OFFSET -4.52789 0.00000 0.00000
											CHANNELS 3 Zrotation Xrotation Yrotation
											JOINT RightHandThumb3
											{
												OFFSET -2.46976 0.00000 0.00000
												CHANNELS 3 Zrotation Xrotation Yrotation
												End site
												{
													OFFSET 0.00000 0.00000 0.00000
												}
											}
										}
									}
									JOINT RightHandIndex1
									{
										OFFSET -14.26970 0.00000 2.88139
										CHANNELS 3 Zrotation Xrotation Yrotation
										JOINT RightHandIndex2
										{
											OFFSET -5.48836 0.00000 0.00000
											CHANNELS 3 Zrotation Xrotation Yrotation
											JOINT RightHandIndex3
											{
												OFFSET -3.01859 0.00000 0.00000
												CHANNELS 3 Zrotation Xrotation Yrotation
												End site
												{
													OFFSET 0.00000 0.00000 0.00000
												}
											}
										}
									}
									JOINT RightHandMiddle1
									{
										OFFSET -14.26970 0.00000 -0.09147
										CHANNELS 3 Zrotation Xrotation Yrotation
										JOINT RightHandMiddle2
										{
											OFFSET -6.17441 0.00000 0.00000
											CHANNELS 3 Zrotation Xrotation Yrotation
											JOINT RightHandMiddle3
											{
												OFFSET -3.56743 0.00000 0.00000
												CHANNELS 3 Zrotation Xrotation Yrotation
												End site
												{
													OFFSET 0.00000 0.00000 0.00000
												}
											}
										}
									}
									JOINT RightHandRing1
									{
										OFFSET -12.69180 0.00000 -3.06433
										CHANNELS 3 Zrotation Xrotation Yrotation
										JOINT RightHandRing2
										{
											OFFSET -5.62556 0.00000 0.00000
											CHANNELS 3 Zrotation Xrotation Yrotation
											JOINT RightHandRing3
											{
												OFFSET -3.56744 0.00000 0.00000
												CHANNELS 3 Zrotation Xrotation Yrotation
												End site
												{
													OFFSET 0.00000 0.00000 0.00000
												}
											}
										}
									}
									JOINT RightHandPinky1
									{
										OFFSET -11.11390 0.00000 -6.03719
										CHANNELS 3 Zrotation Xrotation Yrotation
										JOINT RightHandPinky2
										{
											OFFSET -4.52789 0.00000 0.00000
											CHANNELS 3 Zrotation Xrotation Yrotation
											JOINT RightHandPinky3
											{
												OFFSET -2.46976 0.00000 0.00000
												CHANNELS 3 Zrotation Xrotation Yrotation
												End site
												{
													OFFSET 0.00000 0.00000 0.00000
												}
											}
										}
									}
								}
							}
						}
					}
					JOINT LeftShoulder
					{
						OFFSET 0.01000 7.91373 5.19711
						CHANNELS 3 Zrotation Xrotation Yrotation
						JOINT LeftArm
						{
							OFFSET 18.41580 0.00000 0.00000
							CHANNELS 3 Zrotation Xrotation Yrotation
							JOINT LeftForeArm
							{
								OFFSET 29.11090 0.00000 0.00000
								CHANNELS 3 Zrotation Xrotation Yrotation
								JOINT LeftHand
								{
									OFFSET 24.65040 0.00000 0.00000
									CHANNELS 3 Zrotation Xrotation Yrotation
									JOINT LeftHandThumb1
									{
										OFFSET 5.35114 -0.85590 3.97906
										CHANNELS 3 Zrotation Xrotation Yrotation
										JOINT LeftHandThumb2
										{
											OFFSET 4.52789 0.00000 0.00000
											CHANNELS 3 Zrotation Xrotation Yrotation
											JOINT LeftHandThumb3
											{
												OFFSET 2.46977 0.00000 0.00000
												CHANNELS 3 Zrotation Xrotation Yrotation
												End site
												{
													OFFSET 0.00000 0.00000 0.00000
												}
											}
										}
									}
									JOINT LeftHandIndex1
									{
										OFFSET 14.26970 0.00000 2.88139
										CHANNELS 3 Zrotation Xrotation Yrotation
										JOINT LeftHandIndex2
										{
											OFFSET 5.48836 0.00000 0.00000
											CHANNELS 3 Zrotation Xrotation Yrotation
											JOINT LeftHandIndex3
											{
												OFFSET 3.01859 0.00000 0.00000
												CHANNELS 3 Zrotation Xrotation Yrotation
												End site
												{
													OFFSET 0.00000 0.00000 0.00000
												}
											}
										}
									}
									JOINT LeftHandMiddle1
									{
										OFFSET 14.26970 0.00000 -0.09147
										CHANNELS 3 Zrotation Xrotation Yrotation
										JOINT LeftHandMiddle2
										{
											OFFSET 6.17440 0.00000 0.00000
											CHANNELS 3 Zrotation Xrotation Yrotation
											JOINT LeftHandMiddle3
											{
												OFFSET 3.56744 0.00000 0.00000
												CHANNELS 3 Zrotation Xrotation Yrotation
												End site
												{
													OFFSET 0.00000 0.00000 0.00000
												}
											}
										}
									}
									JOINT LeftHandRing1
									{
										OFFSET 12.69180 0.00000 -3.06433
										CHANNELS 3 Zrotation Xrotation Yrotation
										JOINT LeftHandRing2
										{
											OFFSET 5.62556 0.00000 0.00000
											CHANNELS 3 Zrotation Xrotation Yrotation
											JOINT LeftHandRing3
											{
												OFFSET 3.56744 0.00000 0.00000
												CHANNELS 3 Zrotation Xrotation Yrotation
												End site
												{
													OFFSET 0.00000 0.00000 0.00000
												}
											}
										}
									}
									JOINT LeftHandPinky1
									{
										OFFSET 11.11390 0.00000 -6.03719
										CHANNELS 3 Zrotation Xrotation Yrotation
										JOINT LeftHandPinky2
										{
											OFFSET 4.52789 0.00000 0.00000
											CHANNELS 3 Zrotation Xrotation Yrotation
											JOINT LeftHandPinky3
											{
												OFFSET 2.46976 0.00000 0.00000
												CHANNELS 3 Zrotation Xrotation Yrotation
												End site
												{
													OFFSET 0.00000 0.00000 0.00000
												}
											}
										}
									}
								}
							}
						}
					}
					JOINT pCube4
					{
						OFFSET 0.00000 10.91090 1.10792
						CHANNELS 3 Zrotation Xrotation Yrotation
						End site
						{
							OFFSET 0.00000 0.00000 0.00000
						}
					}
				}
			}
		}
	}
	JOINT RightUpLeg
	{
		OFFSET -9.98441 0.00000 0.00000
		CHANNELS 3 Zrotation Xrotation Yrotation
		JOINT RightLeg
		{
			OFFSET 0.00000 -42.11790 0.00000
			CHANNELS 3 Zrotation Xrotation Yrotation
			JOINT RightFoot
			{
				OFFSET 0.00000 -45.00020 -0.00001
				CHANNELS 3 Zrotation Xrotation Yrotation
				JOINT RightForeFoot
				{
					OFFSET 0.00000 -3.74820 0.00000
					CHANNELS 3 Zrotation Xrotation Yrotation
					JOINT RightToeBase
					{
						OFFSET 0.00000 0.06325 14.43120
						CHANNELS 3 Zrotation Xrotation Yrotation
						End site
						{
							OFFSET 0.00000 0.00000 0.00000
						}
					}
				}
			}
		}
	}
	JOINT LeftUpLeg
	{
		OFFSET 9.98441 0.00000 0.00000
		CHANNELS 3 Zrotation Xrotation Yrotation
		JOINT LeftLeg
		{
			OFFSET 0.00000 -42.11800 0.00000
			CHANNELS 3 Zrotation Xrotation Yrotation
			JOINT LeftFoot
			{
				OFFSET 0.00000 -45.00070 0.00000
				CHANNELS 3 Zrotation Xrotation Yrotation
				JOINT LeftForeFoot
				{
					OFFSET 0.00000 -3.74824 0.00000
					CHANNELS 3 Zrotation Xrotation Yrotation
					JOINT LeftToeBase
					{
						OFFSET 0.00000 0.06325 14.43110
						CHANNELS 3 Zrotation Xrotation Yrotation
						End site
						{
							OFFSET 0.00000 0.00000 0.00000
						}
					}
				}
			}
		}
	}
}
MOTION
Frames: 4
Frame Time: 0.050000
0.010156318755883574 0.008067231153860112 -0.007274667654174412 0.0038852470048862443 0.019163654736978557 0.02898148349995282 3.268085061901656 2.3390145701369307 -1.837522236613494 -0.5782976262640006 3.6980777766451465 0.3668914791706331 -0.6869997364791522 -1.592512170600598 1.0928946247835187 -0.545531309016182 -0.45797685157460705 -0.2417136852713756 0.08926317725220631 13.49023062955669 -1.6197846777817337 0.3554972816381909 0.006461069564920929 -4.208158648291156 0.9910108709034545 -15.899913863305555 -0.40388980990718376 -7.863902402904567 2.8823897837971915 -16.477021998037166 76.15589855198303 15.252395903937538 10.569551033563108 1.4744363850815136 0.8050661154010267 89.51202295327496 21.258422638726483 -0.504564289434985 -4.373799238636614 4.552996326232542 -0.1255231132567745 -1.6351117829311272 0.02916073826010494 -0.013957644159467148 -56.21485537470924 0.03481093719828607 0.008147021098936183 -56.27253904686746 -38.816226872880875 0.03354706353327833 -0.026971515463924112 -0.015816980876365752 0.017522834712963255 -0.010429782464000632 -0.0018001096404425877 -0.006969087904600513 0.026445869149720247 -36.723002078290314 -0.01583125688591833 -0.02587464761868018 0.02281922001910228 -0.044139548555837196 0.006868865033702036 -0.006613031542466286 -0.031863512373753906 0.01888022533743578 -19.752940800571892 0.010604555846203671 -0.020122943926275005 -0.045469163041862465 -0.0006424694010524254 0.04650641249066437 -0.03207865651150747 -0.030687736788544806 0.022301856379149086 24.032778359645548 -0.026493819810652863 0.027316139867257463 28.90351453398411 -0.018323630137511173 -0.04625772662777856 28.84739792970117 -0.04039998566662984 0.016058964365333946 8.618026078124817 2.155204122476629 14.65570543562906 -74.55068614319846 24.68059437562421 -11.354560747074013 -16.60612127830906 3.2716541497682132 -83.87754169168228 -23.39094930393835 -2.6794125727250746 1.6346655653488724 -0.4604414870109425 0.08625723694083717 -8.095723283608175 -0.033782699166473217 -0.005427815287655955 44.52312157904824 0.0073114976401499636 0.03422878166935323 44.5725367541677 12.429564290682382 0.03487206868728008 -0.04769456095063043 -0.004408365486354675 -0.03656714002918316 -0.040419104193559 0.03894778866375338 -0.013086275614754344 -0.004687624206557813 11.137890477201648 0.02877796934787724 0.010229298069000704 0.03422251572512038 0.007788128854333141 0.003886527865373852 0.02073309922156759 -0.039150774997128164 -0.01799314840694808 4.817929719021382 -0.01927998495279292 -0.019914117579792005 0.03254689777619685 -0.0031405333545705917 0.019359847771665165 0.02793798471651651 0.004677051567020765 -0.01785312220865348 -5.595113080583086 0.032533711325290815 0.006321096661837132 -6.687272173533249 -0.0051209951452698 -0.03119688354400116 -6.726530749587247 0.04652183568531792 -0.011732964294445156 0.033004033360147164 -0.004832593459214783 0.00875792224699999 8.060037355598004 3.4964820457188477 -19.221269930081647 0.03532368759608731 10.359224482784157 -0.00011848410747620705 -5.57562558372001 -15.626648955112493 3.147207071739517 0.03171898662158151 0.03456968382223362 -0.045750057307550496 -0.01966955288049744 4.657545807467768 0.010082128745158356 12.46228818121063 -8.260824394261867 6.897954637042952 0.010668239386465632 46.393875504625456 0.02167146686656922 -4.3172484047590025 -14.785874561885999 -3.831104665922052 0.04389160323817316 0.021992734680072304 0.008416130616581459 0.015961771559482887 -10.764756883208298 0.0483426151715443 
-0.03193513605221702 -0.037532579122531974 -0.019299785820517425 0.00571474946126721 -0.01776393783732838 0.04380509012783452 3.7512036393273105 2.410098116899737 -1.9254787576621055 -0.5829496731092116 3.711103094900589 0.36080386751606475 -0.6338162536460619 -1.518518324975771 1.046807141098332 -0.48369265485327406 -0.3622623085558377 -0.26589828538196664 0.14625919321779923 13.635665031502656 -1.5420422978503239 0.37080727198036767 0.1822323828809083 -3.879270184693744 0.8606812567952755 -15.705639983787293 -0.3490287746304003 -8.402783449708542 2.9583688272297675 -16.79205034347176 76.77507166282899 17.055432571062173 9.512773634675986 -0.5918893951595048 0.28003465130646904 87.79212219233068 21.127203193280092 -0.5773067216386752 -4.6817518775845075 4.496069215248067 -0.1414310948181881 -1.5863935883975087 -0.021049755536534286 0.02304842102464806 -56.23761524101058 0.01861976241362372 0.01976893014106684 -56.22241862368184 -38.818623583548664 -0.025330184631228714 -0.005284100401866423 -0.03264699262336401 0.009345953853703697 0.02099850984544558 -0.0029437068045722395 -0.02885237058986421 -0.03635016491778963 -36.679484931928585 0.006783617234409184 -0.014436735528311997 0.017217398205623857 0.044709656531950484 0.0425933114995747 0.030048108583984556 -0.029093020134846277 -0.035095687668350535 -19.796828295903186 -0.022611333127927336 0.04568793956269265 -0.043084416766262054 0.04562462036381948 0.01563767055061942 0.0009271252446781502 0.001278574982019813 -0.0007327378013799042 24.047317268197393 0.023386304708341545 -0.007646720832707188 28.887136979756136 -0.021582359604244986 -0.002443945713812601 28.89734915071536 0.0002688943056527209 0.02753655104412263 9.237803269968914 2.2324073863913814 14.735874358866633 -74.31806362146922 25.70977526138638 -11.619279037067345 -15.484705414554531 2.650800159086971 -83.31497175384166 -23.255616383908837 -3.739260909114496 2.3122039127837306 -0.5200274684448924 0.07654896837629481 -8.161726565976817 0.01991204220638984 -0.03699502092007496 44.56778500748046 0.04560881090276092 0.017513314766888118 44.58639818556704 12.496583603348657 0.04847520596735007 0.0020844897419808285 0.03328337060450593 -0.023078922006427326 0.021644280591748104 -0.00933312510168359 0.020362560845630213 0.04172022643064261 11.112895546512338 0.044902966189654045 -0.028465200531256788 -0.02206263144079893 -0.014086281467208982 0.04023881278903481 -0.021563975430949737 -0.008029662426210234 0.03946869736819243 4.743712413241581 0.0059187617478398905 -0.01406738722840428 -0.0035670511618156766 -0.005610663326976273 0.009042587824781437 0.021290835654182126 -0.008628208132301723 0.0343678179518431 -5.557026417680473 -0.012886668657039762 -0.004030106958238549 -6.746938794584314 -0.03501906770398928 -0.001321078036960389 -6.70343832865978 -0.026495831939836095 0.013129702510822745 -0.04493916085897734 -0.01668918662781181 -0.016966919913439918 8.075097232897024 3.537540221729472 -19.241763702626645 -0.01338805994834268 10.393107105375806 -0.0027890481771300907 -5.621752682837281 -15.656069018850111 3.15589375295497 -0.006129493156677489 0.04756304104598804 -0.04242330960081645 0.04957293009680572 4.680268562795565 0.02961571414006851 12.422162732478272 -8.240119477048456 6.878334050832354 -0.0023019571029950165 46.375648435977304 -0.010578833841353798 -4.349011104458954 -14.758080553885943 -3.828841350764075 -0.02094342912619282 -0.03347625321007278 -0.014813458076534827 -0.04056469878949782 -10.762649972155236 0.02457140712896301 
0.0005700024964715326 0.0068687012535584464 0.01943597023350282 -0.04405207836625402 0.028859176952508676 -0.021319727846287165 4.052416117518293 2.34003425091105 -1.9575356060279834 -0.6153747971706865 3.714860268256934 0.36352547841555305 -0.6673242791271857 -1.5687703660275807 0.9630067100163135 -0.4644009613269989 -0.2946016605490844 -0.3309481278739298 0.024811001010957887 13.91546239780714 -1.3335906695314899 0.4013785933090903 0.2987636295088329 -3.330958880666698 0.8581086037240151 -15.526178340375473 -0.3029147159429016 -8.719725106174431 3.0145865522829767 -16.975359631580986 77.24131990339717 18.830272681653 8.960847360434991 -2.112911683202024 0.041263672792803865 86.5295684671034 21.100988337573575 -0.5352406126818141 -4.8541785876709085 4.540964547341553 -0.1347628872822844 -1.5924118280316468 -0.015041224828574609 -0.028716450929617682 -56.22595753218168 0.02426474919496256 -0.040860911317219945 -56.214668728813386 -38.81686065637566 -0.03337572455988549 -0.006347430778598698 -0.041881324861046364 0.00813373870809278 -0.048659111962165665 -0.030967279587080798 -0.024558329027366217 -0.04623223654896623 -36.694126184077014 -0.02794249675855595 -0.0007144278062584303 -0.02773494107685057 -0.024326831095195636 0.006946395906802956 0.03012664439986985 0.032884870397885485 -0.012231865025339251 -19.781168396208546 -0.04012316695465426 -0.030996012666797166 -0.005774248638070274 0.01522455353148772 0.020388350693097353 0.022062745739057175 0.008808209337700042 0.012756353758183717 24.063675195210443 -0.019129653923304728 0.00635636975063464 28.912787666311957 -0.02115777684937279 0.040181242564309286 28.884818322576287 0.041679770204787414 -0.019004406100006446 9.681692705113495 2.3659529136620225 14.851698394937205 -74.07762293725143 26.496156942785742 -12.230096126649201 -14.802423773486215 2.517981169381776 -83.24234774023735 -23.450201970442542 -4.790308265012726 3.150338061901078 -0.5236262132333696 0.02072441870859361 -8.094482720467061 0.01164494507938808 0.03882182290600594 44.5872097199133 0.019156748997958266 -0.0018790861855249004 44.54420338322713 12.42117153795341 -0.017806495027369435 0.0160389962089328 -0.0025713205715701235 -0.016051384464440228 -0.005699582091016661 0.027167185199690646 -0.028582043595141993 0.024563218505931333 11.082973814523625 -0.009745360300639367 0.041491039616309865 0.004897574450657883 0.03943515875723248 0.03683552042938983 0.014298539484675639 -0.04831758339591324 0.020274093545929336 4.818513647676309 -0.015272340820709796 0.01846385683711608 0.00633359816228605 0.005439333749076232 -0.028443982707744956 0.038709230613884406 0.008052776628669402 -0.03567940164915507 -5.583307430783855 -0.033472020459156544 -0.03388667094012681 -6.69672159986794 -0.0042995173658333385 0.0004130375289980084 -6.766153692120255 0.023846741414866805 0.035137167020668186 -0.04507611655137366 0.012775286849762115 0.04813913411004379 8.069296775203428 3.448747208831036 -19.18214001862214 -0.027996911644646287 10.417077803320382 0.0262108073857273 -5.624889814311291 -15.644530531080427 3.2313740610131076 0.01963225583011457 0.009147344287770575 -0.01446715067520276 -0.0012557003185186945 4.738295060176836 -0.0029046140617299946 12.47902607039106 -8.275713819492474 6.90524955983807 0.03611775905336226 46.39551130436987 0.04242220399614082 -4.295436657863419 -14.763426514985051 -3.798665360679397 -0.024484839759652138 -0.012666816202644773 0.007031380174345508 -0.009015985662519667 -10.736714509102455 0.01719937041865252 
0.015542148254729597 0.03704470628653619 0.002195400916358645 -0.03872262967940222 -0.03262563466288409 0.02418637914180001 4.293329341676226 2.3135668027073804 -2.0409841598182124 -0.6822946880673979 3.664687837376963 0.35500410557390355 -0.6095277465218152 -1.5507275678254309 0.9217614291318252 -0.5077480901029724 -0.20429209570623497 -0.23760131059727652 -0.023924954732599313 14.137976078475717 -1.090555555904029 0.35557799942901425 0.5058264242767312 -2.653625295468863 0.7623271575491672 -15.322154158936163 -0.20698824720312176 -8.993928334968366 3.17173141614706 -17.186917511004147 77.83532759107288 20.178277167920655 8.585784720622279 -3.2908109770896767 0.06837119827459336 86.30144053321514 21.114039381669812 -0.5554247191207237 -5.185335971922057 4.521074806173634 -0.17302945566347075 -1.6015374974144698 -0.023610102153991484 0.03397868648971006 -56.25446790593023 -0.04988494575198055 0.027378049975254018 -56.265351164428765 -38.809762395553044 0.025711140092096327 0.017152575689940622 -0.02323259660907337 0.021662913815497477 -0.023419805532736922 -0.04470937496786707 -0.033988158302934515 0.0056226563455704925 -36.70304732660326 0.01528870051972335 -0.023120703377562408 0.0015866885413749947 0.02934415597211168 0.00882145772071543 -0.0033960586257394862 -0.032365999609987074 0.0003305553892799296 -19.77281923817458 0.00807119105600725 0.03221210483426159 0.03651100864479657 -0.002171568791523449 0.01875199950623476 0.01992593770045613 -0.03605720066585315 -0.0012977348127990625 24.07330163995913 -0.01775366860135826 0.03827734347983723 28.839537300683357 0.029620116131776546 -0.03053837034562994 28.912796529865357 -0.025526563143720996 0.0046641527268755775 10.151130997740156 2.4352128235223054 15.03685870077068 -73.91020063116362 26.897506863945008 -12.826046472872433 -14.925985460202517 2.8537672633818127 -83.99820223134591 -23.594100089083888 -5.791379563112349 3.8656119376671563 -0.43040632519921673 0.07855692309021779 -8.097363498869056 0.028558921513780835 -0.014398078439182737 44.57643999037822 -0.015462782104626429 -0.04824528533014782 44.56476330423235 12.486048125964476 0.033631835643505845 0.0006197096600469496 0.04362935963990725 -0.03092658202455489 -0.04198706310106236 0.006449037266011659 0.008609269148732382 -0.004554240232476487 11.100284023151907 -0.014143545041063244 0.0012698130066154348 -0.006247845116811378 0.045166556659272945 0.020453751580122494 0.04655008301136191 0.00837602411302259 0.009973396022158075 4.779396192139577 0.007783810800442277 -0.005657380480035012 -0.0020467743023307792 -0.03780325177947609 -0.004282344518887415 -0.033441534754784626 0.01762147239851797 0.02791931530288608 -5.5703595694180805 0.03066226124873203 -0.0066972987774039615 -6.748422254701947 -0.028573551909677256 -0.03505326439754474 -6.7101112563840895 0.01203669988208423 0.0482270534456851 0.024517175793596593 0.004393085782773456 0.020998616014370402 8.031934103718429 3.4755812980623837 -19.19782442771432 -0.00205918480243167 10.412891025315682 -0.01901901599621428 -5.614724228974362 -15.686738671263615 3.168155396521753 0.011713948819317527 -0.03421131110111744 0.017480128291552592 -0.0355504521147744 4.743232261933756 0.04924808583273876 12.432946028247096 -8.255534432849357 6.901625905110004 0.04540685723463347 46.39300334663091 -0.012704459642161874 -4.345432172480513 -14.729638577128295 -3.8422042396591234 -0.01948893807218545 0.016158280953933284 0.0106594022062847 0.012441390593778573 -10.738845819662847 -0.047270165292983404 
